<?xml version="1.0" encoding="utf-8" ?>
<svg version="1.1" id="Layer_1" xmlns="http://www.w3.org/2000/svg" xmlns:xlink="http://www.w3.org/1999/xlink" x="0px" y="0px" viewBox="0 0 16 13.001" enable-background="new 0 0 16 13.001" xml:space="preserve"><path fill="#ebeef0" d="M5.032,13.001c6.039,0,9.339-5.002,9.339-9.34c0-0.142,0-0.284-0.008-0.425
	c0.642-0.464,1.195-1.04,1.637-1.699c-0.6,0.266-1.235,0.44-1.885,0.517c0.685-0.41,1.197-1.056,1.442-1.816
	c-0.644,0.382-1.349,0.652-2.085,0.797c-1.243-1.322-3.322-1.386-4.644-0.143c-0.853,0.802-1.214,1.997-0.95,3.137
	C5.24,3.897,2.781,2.65,1.114,0.599c-0.872,1.5-0.426,3.419,1.016,4.382C1.608,4.965,1.097,4.825,0.64,4.57v0.042
	C0.641,6.174,1.742,7.52,3.274,7.83C2.791,7.961,2.283,7.981,1.792,7.886c0.429,1.337,1.662,2.253,3.067,2.28
	c-1.163,0.913-2.599,1.409-4.077,1.408C0.52,11.573,0.26,11.557,0,11.526c1.501,0.964,3.248,1.475,5.032,1.473"/>
</svg>
